<svg xml:space="preserve" style="enable-background:new 0 0 2573 485.7;" viewBox="0 0 2573 485.7" y="0px" x="0px" xmlns:xlink="http://www.w3.org/1999/xlink" xmlns="http://www.w3.org/2000/svg" id="Layer_1" version="1.1">
<style type="text/css">
	.st0{fill:#0C5ED6;}
</style>
<g>
	<path d="M205.1,9.8c5.3,2,11,1.4,16.5,1.9c31.8,3,62.9,8.6,92.3,21.6c49.7,22,77.6,60.3,85.1,113.7
		c4.5,32,3.4,63.7-6.4,94.6c-14.7,46.3-45.2,78.5-89.3,98.4c-31.9,14.4-65.6,20.2-100.4,21c-18.1,0.4-36.3,0.4-54.5,0.3
		c-4,0-5,1.2-5,5c0.1,32.2,0,64.5,0.2,96.7c0,4.3-0.9,5.6-5.4,5.5c-42.3-0.2-84.6-0.2-126.9,0c-3.9,0-5.3-0.6-5.3-5
		C6.3,317,6.2,170.4,6.2,23.8c0-3.8,0.9-4.9,4.8-5.3c37.9-4.1,76-6.6,114.1-7.9c1.1,0,2.4,0.5,3.1-0.9c3.7,0,7.3,0,11,0
		c6,1.6,12,1.6,18,0C173.2,9.8,189.1,9.8,205.1,9.8z M143.7,187.3c0,29.4,0,58.8,0,88.2c0,2.3-1,5.1,3.3,5c16-0.3,32,0.6,47.8-2.5
		c34.3-6.5,57.6-25.3,66.9-59.6c4.5-16.5,5.2-33.3,3.5-50.4c-3.4-34.9-23.4-59-57.3-68.6c-19.5-5.5-39.4-5.2-59.4-5
		c-4,0-5,1.3-5,5.1C143.8,128.8,143.7,158.1,143.7,187.3z" class="st0"></path>
	<path d="M1973.3,9.8c5.3,2,11,1.4,16.5,1.9c30.4,2.9,60.3,8.1,88.7,20.1c52.1,21.9,81.5,61.1,88.9,116.9
		c4.2,31.8,3,63.3-7,94.1c-14.8,45.7-45.2,77.4-88.5,97.2c-31.8,14.5-65.6,20.3-100.3,21.1c-18.3,0.4-36.6,0.4-55,0.3
		c-4,0-5,1.1-5,5c0.2,32.4,0,64.8,0.2,97.2c0,3.7-0.7,5-4.8,5c-42.6-0.2-85.3-0.1-127.9,0c-3.7,0-4.7-0.8-4.7-4.6
		c0.1-146.7,0.1-293.5,0-440.2c0-3.4,0.5-4.7,4.4-5.2c38.1-4.1,76.3-6.6,114.6-7.9c1.1,0,2.4,0.5,3.1-0.9c3.7,0,7.3,0,11,0
		c6,1.6,12,1.6,18,0C1941.3,9.8,1957.3,9.8,1973.3,9.8z M1911.6,187.3c0,29.6,0,59.2,0,88.7c0,2.3-0.5,4.6,3.3,4.6
		c16.1-0.2,32.3,0.5,48.3-2.6c30.2-5.8,52.8-21.3,63.8-51c6.8-18.5,8-37.8,6.5-57.4c-2.8-35.4-23.2-60.4-57.5-70.1
		c-19.5-5.5-39.5-5.2-59.5-5c-3.9,0-5,1.1-5,5C1911.7,128.8,1911.6,158.1,1911.6,187.3z" class="st0"></path>
	<path d="M2565,343.9c-2.3,5.9-2.1,12.2-3.4,18.3c-9.3,43.8-35.7,73.6-75.7,92.2c-26.4,12.3-54.5,18.2-83.2,21.1
		c-36.8,3.8-73.5,2.9-110.1-2c-25.8-3.4-51.2-8.5-75.8-16.9c-2.6-0.9-4.1-2-4.5-5c-4.6-31.9-9.2-63.7-13.9-95.6
		c-0.1-1-0.1-2-0.2-2.9c1.4-1,2.3-0.1,3.3,0.4c34.5,15.7,70.8,24.7,108.2,30.2c20.8,3.1,41.7,4.9,62.7,2.9c12-1.1,23.8-3.1,34.5-9
		c21.6-11.9,25.7-40.6,8.1-58.1c-9.4-9.3-21.1-15-33.2-19.7c-23.1-8.9-46.5-17-69.5-26.1c-24.7-9.7-48.1-21.9-67.2-41
		c-21.1-21.1-31.5-46.9-33.5-76.2c-1.9-28.3,2.4-55.4,18-79.7c16.7-26.1,41.3-41.8,69.8-52.2c23.2-8.4,47.2-12.4,71.7-14
		c1.4-0.1,3,0.5,4.2-0.9c19,0,38,0,57,0c0.5,1.2,1.7,0.9,2.6,0.9c28.5,1.2,56.6,5.5,84.5,11.2c3.5,0.7,4.7,2.2,5,5.8
		c1.6,15.9,3.6,31.7,5.4,47.5c1.7,15,3.4,29.9,5.1,45.4c-17.9-7.1-35.8-12.1-54.1-15.6c-27.2-5.3-54.7-8-82.4-6.4
		c-10.8,0.7-21.5,2.6-31.3,7.5c-20.7,10.2-24.9,33.8-9,50.6c5.3,5.6,11.7,9.8,18.5,13.4c14.3,7.6,29.5,12.9,44.7,18.2
		c28.2,9.9,56.6,19.4,82.5,34.8c30.2,18,51.6,42.5,58.8,77.9c0.9,4.3,0.6,8.8,2.5,12.9C2565,323.9,2565,333.9,2565,343.9z" class="st0"></path>
	<path d="M157.2,9.8c-6,1.6-12,1.6-18,0C145.2,9.8,151.2,9.8,157.2,9.8z" class="st0"></path>
	<path d="M1925.3,9.8c-6,1.6-12,1.6-18,0C1913.3,9.8,1919.3,9.8,1925.3,9.8z" class="st0"></path>
	<path d="M456.1,243.5c0-72.8,0.1-145.6-0.1-218.4c0-5.3,1.5-6.2,6.4-6.1c42,0.2,84,0.2,125.9,0c4.3,0,5.6,0.9,5.6,5.4
		c-0.2,55.8-0.1,111.7-0.2,167.5c0,4.3,0.8,5.9,5.6,5.8c44.1-0.2,88.3-0.2,132.4,0c4.1,0,5.2-1.1,5.2-5.2c-0.1-56,0-112-0.2-168
		c0-4.2,0.8-5.6,5.4-5.6c42.3,0.2,84.6,0.2,126.9,0c4.2,0,5.2,1.2,5.2,5.3c-0.1,146.4-0.1,292.8,0,439.3c0,4.3-1.3,5.1-5.3,5.1
		c-42.3-0.1-84.6-0.2-126.9,0c-4.7,0-5.3-1.5-5.3-5.6c0.1-55.2,0-110.4,0.2-165.5c0-4.4-0.9-5.8-5.6-5.8c-44.1,0.2-88.3,0.2-132.4,0
		c-4.1,0-5.2,1-5.2,5.2c0.1,55.3,0,110.7,0.2,166c0,4.7-1.3,5.7-5.8,5.7c-42.3-0.2-84.6-0.2-126.9,0c-4.2,0-5.1-1.1-5.1-5.2
		C456.2,390.1,456.1,316.8,456.1,243.5z" class="st0"></path>
	<path d="M1214.9,243.7c0-73,0-145.9-0.1-218.9c0-4.5,1.1-5.8,5.7-5.8c42.3,0.2,84.6,0.2,126.9,0c4.3,0,5.2,1.2,5.1,5.3
		c-0.1,116-0.1,232-0.2,348c0,4.9,1.2,6,6,5.9c40.1-0.2,80.3-0.1,120.4-0.2c4.2,0,5.4,0.8,4.4,5.3c-6.4,27-12.5,54-18.6,81
		c-0.8,3.5-2.2,4.3-5.6,4.3c-79.6-0.1-159.2-0.1-238.9,0c-4.7,0-5.3-1.5-5.3-5.6C1214.9,389.9,1214.9,316.8,1214.9,243.7z" class="st0"></path>
	<path d="M975.8,243.6c0-72.9,0-145.9-0.1-218.8c0-4.3,0.8-5.9,5.6-5.9c42.3,0.2,84.6,0.2,126.9,0c4.1,0,5.3,1,5.3,5.2
		c-0.1,146.4-0.1,292.8,0,439.2c0,4.1-1,5.2-5.2,5.2c-42.5-0.2-84.9-0.2-127.4,0c-4.1,0-5.2-0.9-5.2-5.1
		C975.9,390.2,975.8,316.9,975.8,243.6z" class="st0"></path>
	<path d="M1670.6,244c0,72.8-0.1,145.5,0.1,218.3c0,5.4-1.6,6.3-6.6,6.3c-42-0.2-83.9-0.2-125.9,0c-3.8,0-5-0.8-5-4.8
		c0.1-146.5,0.1-293.1,0-439.6c0-4.2,1.2-5.2,5.3-5.2c42.3,0.2,84.6,0.2,126.9,0c4.1,0,5.2,1,5.2,5.2
		C1670.6,97.4,1670.6,170.7,1670.6,244z" class="st0"></path>
</g>
</svg>
